# xmcd
#
# Track frame offsets:
#	150
#	20224
#	42403
#	62072
#	85854
#	111336
#	130049
#	139368
#	162293
#	188952
#	214797
#	238404
#
# Disc length: 3738 seconds
# Revision: 0
# Processed by: cddbd v1.5.2PL0 Copyright (c) Steve Scherf et al.
# Submitted via: dBpowerAMP V12.0
#
DISCID=b60e980c
DTITLE=Sybreed - Antares
DYEAR=2008
DGENRE=Industrial Metal
TTITLE0=Emma-0
TTITLE1=Ego Bypass Generator
TTITLE2=Revive My Wounds
TTITLE3=Isolate
TTITLE4=Dynamic
TTITLE5=Neurodrive
TTITLE6=Ex-Inferis
TTITLE7=Permafrost
TTITLE8=Orbital
TTITLE9=Twelve Megatrons Gravity
TTITLE10=Technocracy (Japanese Bonus)
TTITLE11=Ethernity
EXTD=
EXTT0=
EXTT1=
EXTT2=
EXTT3=
EXTT4=
EXTT5=
EXTT6=
EXTT7=
EXTT8=
EXTT9=
EXTT10=
EXTT11=
PLAYORDER=
